<svg height="512pt" viewBox="-8 0 512 512.00203" width="512pt" xmlns="http://www.w3.org/2000/svg"><path d="m426.855469 299.117188h-36.671875v-133.078126c0-4.199218-3.402344-7.605468-7.601563-7.605468s-7.605469 3.40625-7.605469 7.605468v110.269532h-34.976562v-171.839844h34.976562v31.152344c0 4.199218 3.40625 7.605468 7.605469 7.605468s7.601563-3.40625 7.601563-7.605468v-31.683594c25.324218-3.59375 44.863281-25.402344 44.863281-51.703125 0-28.800781-23.433594-52.234375-52.234375-52.234375h-50.648438c-28.800781 0-52.234374 23.433594-52.234374 52.234375 0 26.300781 19.539062 48.109375 44.863281 51.703125v195.183594h-36.664063c-37.640625 0-68.261718 30.621094-68.261718 68.261718v55.886719c-1.074219-.113281-2.144532-.21875-3.230469-.289062-12.226563-31.097657-42.078125-51.632813-75.90625-51.632813-21.011719 0-40.96875 7.96875-56.195313 22.4375-3.042968 2.894532-3.167968 7.707032-.273437 10.75 2.890625 3.042969 7.707031 3.167969 10.75.273438 12.386719-11.769532 28.621093-18.25 45.71875-18.25 29.003906 0 54.417969 18.550781 63.238281 46.160156 1.007812 3.152344 3.972656 5.292969 7.28125 5.292969 34.039062 0 62.179688 25.746093 65.964844 58.78125h-261.40625c3.65625-22.890625 23.546875-40.445313 47.457031-40.445313.988281 0 2.019531.039063 3.058594.109375 2.027343.140625 4.03125-.539062 5.558593-1.886719 1.527344-1.347656 2.449219-3.253906 2.558594-5.285156.464844-8.5625 2.542969-16.820312 6.175782-24.542968 1.785156-3.800782.152343-8.332032-3.648438-10.117188s-8.332031-.152344-10.117188 3.644531c-3.433593 7.308594-5.738281 15.003907-6.882812 22.957031-33.359375 1.71875-59.96875 29.398438-59.96875 63.171876 0 4.199218 3.40625 7.605468 7.605469 7.605468h479.910156c4.199219 0 7.605469-3.40625 7.605469-7.605468v-137.015626c0-37.640624-30.625-68.265624-68.265625-68.265624zm-51.878907-7.601563v53.988281c0 9.640625-7.84375 17.488282-17.488281 17.488282s-17.488281-7.847657-17.488281-17.488282v-53.988281zm-79.835937-239.28125c0-20.417969 16.609375-37.027344 37.023437-37.027344h50.648438c20.417969 0 37.027344 16.609375 37.027344 37.027344s-16.609375 37.027344-37.027344 37.027344h-50.648438c-20.414062 0-37.023437-16.609375-37.023437-37.027344zm-60.066406 374.132813v-58.984376c0-29.253906 23.800781-53.054687 53.054687-53.054687h36.664063v31.175781c0 18.027344 14.667969 32.695313 32.695312 32.695313 18.03125 0 32.695313-14.667969 32.695313-32.695313v-31.175781h36.675781c29.253906 0 53.054687 23.800781 53.054687 53.054687v102.054688h-194.953124c-9.773438-20.511719-27.855469-36.328125-49.886719-43.070312zm57.421875 70.425781c-.386719-4.148438-1.078125-8.203125-2.0625-12.148438h189.480468v12.148438zm0 0"/><path d="m404.628906 52.234375c0-12.03125-9.785156-21.820313-21.816406-21.820313h-50.648438c-12.03125 0-21.816406 9.789063-21.816406 21.820313s9.785156 21.820313 21.816406 21.820313h50.648438c12.03125 0 21.816406-9.789063 21.816406-21.820313zm-79.074218 0c0-3.644531 2.964843-6.609375 6.609374-6.609375h50.648438c3.644531 0 6.609375 2.964844 6.609375 6.609375s-2.964844 6.609375-6.609375 6.609375h-50.648438c-3.644531 0-6.609374-2.964844-6.609374-6.609375zm0 0"/><path d="m287.535156 458.289062c4.199219 0 7.605469-3.40625 7.605469-7.605468v-86.171875c0-4.199219-3.40625-7.605469-7.605469-7.605469-4.199218 0-7.601562 3.40625-7.601562 7.605469v86.171875c0 4.203125 3.402344 7.605468 7.601562 7.605468zm0 0"/><path d="m427.441406 458.289062c4.199219 0 7.605469-3.40625 7.605469-7.605468v-86.171875c0-4.199219-3.40625-7.605469-7.605469-7.605469-4.199218 0-7.605468 3.40625-7.605468 7.605469v86.171875c0 4.203125 3.40625 7.605468 7.605468 7.605468zm0 0"/><path d="m357.488281 458.289062c4.199219 0 7.605469-3.40625 7.605469-7.605468v-45.121094c0-4.203125-3.40625-7.605469-7.605469-7.605469s-7.601562 3.402344-7.601562 7.605469v45.121094c0 4.203125 3.402343 7.605468 7.601562 7.605468zm0 0"/></svg>


